<svg width="8" height="64" viewBox="0 0 8 64" fill="none" xmlns="http://www.w3.org/2000/svg">
<path d="M3.64645 63.3536C3.84171 63.5488 4.15829 63.5488 4.35355 63.3536L7.53553 60.1716C7.7308 59.9763 7.7308 59.6597 7.53553 59.4645C7.34027 59.2692 7.02369 59.2692 6.82843 59.4645L4 62.2929L1.17157 59.4645C0.976311 59.2692 0.659728 59.2692 0.464466 59.4645C0.269204 59.6597 0.269204 59.9763 0.464466 60.1716L3.64645 63.3536ZM3.5 0V1.96875H4.5V0H3.5ZM3.5 5.90625V9.84375H4.5V5.90625H3.5ZM3.5 13.7812V17.7188H4.5V13.7812H3.5ZM3.5 21.6562V25.5938H4.5V21.6562H3.5ZM3.5 29.5312V33.4688H4.5V29.5312H3.5ZM3.5 37.4062V41.3438H4.5V37.4062H3.5ZM3.5 45.2812V49.2188H4.5V45.2812H3.5ZM3.5 53.1562V57.0938H4.5V53.1562H3.5ZM3.5 61.0312V63H4.5V61.0312H3.5Z" fill="#999696"/>
</svg>
