<svg width="269" height="70" viewBox="0 0 269 70" fill="none" xmlns="http://www.w3.org/2000/svg">
<path d="M0.78125 0.9375H15.4531V69H0.78125V0.9375ZM53.7969 0.9375C65.5156 0.9375 74.3281 3.76562 80.2344 9.42188C86.1719 15.0781 89.1406 23.4844 89.1406 34.6406C89.1406 45.8906 86.1406 54.4375 80.1406 60.2812C74.1719 66.0938 65.3906 69 53.7969 69H30.9688V0.9375H53.7969ZM54.7812 58.0781C61.125 58.0781 65.9219 56.125 69.1719 52.2188C72.4219 48.3125 74.0469 42.5156 74.0469 34.8281C74.0469 27.2656 72.4375 21.5625 69.2188 17.7188C66 13.875 61.1875 11.9531 54.7812 11.9531H45.4531V58.0781H54.7812ZM115.109 28.5938H141.922V39.2344H115.109V58.1719H145.766V69H100.438V0.9375H144.781V11.7656H115.109V28.5938ZM168.432 47.1818C168.261 45.7424 167.57 44.625 166.358 43.8295C165.146 43.0341 163.659 42.6364 161.898 42.6364C160.61 42.6364 159.483 42.8447 158.517 43.2614C157.561 43.678 156.813 44.2509 156.273 44.9801C155.742 45.7093 155.477 46.5379 155.477 47.4659C155.477 48.2424 155.662 48.91 156.031 49.4688C156.41 50.018 156.893 50.4773 157.48 50.8466C158.067 51.2064 158.683 51.5047 159.327 51.7415C159.971 51.9687 160.562 52.1534 161.102 52.2955L164.057 53.0909C164.814 53.2898 165.657 53.5644 166.585 53.9148C167.523 54.2652 168.418 54.7434 169.27 55.3494C170.132 55.946 170.842 56.7131 171.401 57.6506C171.959 58.5881 172.239 59.7386 172.239 61.1023C172.239 62.6742 171.827 64.0947 171.003 65.3636C170.188 66.6326 168.995 67.6411 167.423 68.3892C165.861 69.1373 163.962 69.5114 161.727 69.5114C159.644 69.5114 157.84 69.1752 156.315 68.5028C154.8 67.8305 153.607 66.893 152.736 65.6903C151.874 64.4877 151.386 63.0909 151.273 61.5H154.909C155.004 62.5985 155.373 63.5076 156.017 64.2273C156.67 64.9375 157.494 65.4678 158.489 65.8182C159.492 66.1591 160.572 66.3295 161.727 66.3295C163.072 66.3295 164.279 66.1117 165.349 65.6761C166.42 65.2311 167.267 64.6155 167.892 63.8295C168.517 63.0341 168.83 62.1061 168.83 61.0455C168.83 60.0795 168.56 59.2936 168.02 58.6875C167.48 58.0814 166.77 57.589 165.889 57.2102C165.009 56.8314 164.057 56.5 163.034 56.2159L159.455 55.1932C157.182 54.5398 155.383 53.607 154.057 52.3949C152.731 51.1828 152.068 49.5966 152.068 47.6364C152.068 46.0076 152.509 44.5871 153.389 43.375C154.279 42.1534 155.473 41.2064 156.969 40.5341C158.474 39.8523 160.155 39.5114 162.011 39.5114C163.886 39.5114 165.553 39.8475 167.011 40.5199C168.47 41.1828 169.625 42.0919 170.477 43.2472C171.339 44.4025 171.794 45.714 171.841 47.1818H168.432ZM187.065 47.1818V50.0227H175.758V47.1818H187.065ZM179.053 41.9545H182.406V62.75C182.406 63.697 182.543 64.4072 182.817 64.8807C183.102 65.3447 183.461 65.6572 183.897 65.8182C184.342 65.9697 184.811 66.0455 185.303 66.0455C185.673 66.0455 185.976 66.0265 186.212 65.9886C186.449 65.9413 186.638 65.9034 186.781 65.875L187.462 68.8864C187.235 68.9716 186.918 69.0568 186.511 69.142C186.103 69.2367 185.587 69.2841 184.962 69.2841C184.015 69.2841 183.087 69.0805 182.178 68.6733C181.279 68.2661 180.531 67.6458 179.934 66.8125C179.347 65.9792 179.053 64.928 179.053 63.6591V41.9545ZM205.857 60.0795V47.1818H209.21V69H205.857V65.3068H205.63C205.119 66.4148 204.323 67.357 203.244 68.1335C202.164 68.9006 200.8 69.2841 199.153 69.2841C197.789 69.2841 196.577 68.9858 195.516 68.3892C194.456 67.7831 193.622 66.8741 193.016 65.6619C192.41 64.4403 192.107 62.9015 192.107 61.0455V47.1818H195.46V60.8182C195.46 62.4091 195.905 63.678 196.795 64.625C197.694 65.572 198.84 66.0455 200.232 66.0455C201.066 66.0455 201.913 65.8324 202.775 65.4062C203.646 64.9801 204.375 64.3267 204.962 63.446C205.559 62.5653 205.857 61.4432 205.857 60.0795ZM223.588 69.4545C221.77 69.4545 220.165 68.9953 218.773 68.0767C217.381 67.1487 216.292 65.8419 215.506 64.1562C214.72 62.4612 214.327 60.4583 214.327 58.1477C214.327 55.8561 214.72 53.8674 215.506 52.1818C216.292 50.4962 217.385 49.1941 218.787 48.2756C220.188 47.357 221.808 46.8977 223.645 46.8977C225.065 46.8977 226.188 47.1345 227.011 47.608C227.845 48.072 228.479 48.6023 228.915 49.1989C229.36 49.786 229.705 50.2689 229.952 50.6477H230.236V39.9091H233.588V69H230.349V65.6477H229.952C229.705 66.0455 229.355 66.5473 228.901 67.1534C228.446 67.75 227.797 68.285 226.955 68.7585C226.112 69.2225 224.99 69.4545 223.588 69.4545ZM224.043 66.4432C225.387 66.4432 226.524 66.0928 227.452 65.392C228.38 64.6818 229.085 63.7017 229.568 62.4517C230.051 61.1922 230.293 59.7386 230.293 58.0909C230.293 56.4621 230.056 55.0369 229.582 53.8153C229.109 52.5843 228.408 51.6278 227.48 50.946C226.552 50.2547 225.406 49.9091 224.043 49.9091C222.622 49.9091 221.438 50.2737 220.491 51.0028C219.554 51.7225 218.848 52.7027 218.375 53.9432C217.911 55.1742 217.679 56.5568 217.679 58.0909C217.679 59.6439 217.916 61.0549 218.389 62.3239C218.872 63.5833 219.582 64.5871 220.52 65.3352C221.467 66.0739 222.641 66.4432 224.043 66.4432ZM240.193 69V47.1818H243.545V69H240.193ZM241.898 43.5455C241.244 43.5455 240.681 43.3229 240.207 42.8778C239.743 42.4328 239.511 41.8977 239.511 41.2727C239.511 40.6477 239.743 40.1127 240.207 39.6676C240.681 39.2225 241.244 39 241.898 39C242.551 39 243.11 39.2225 243.574 39.6676C244.047 40.1127 244.284 40.6477 244.284 41.2727C244.284 41.8977 244.047 42.4328 243.574 42.8778C243.11 43.3229 242.551 43.5455 241.898 43.5455ZM258.549 69.4545C256.579 69.4545 254.851 68.9858 253.364 68.0483C251.887 67.1108 250.732 65.7992 249.898 64.1136C249.075 62.428 248.663 60.4583 248.663 58.2045C248.663 55.9318 249.075 53.9479 249.898 52.2528C250.732 50.5578 251.887 49.2415 253.364 48.304C254.851 47.3665 256.579 46.8977 258.549 46.8977C260.519 46.8977 262.242 47.3665 263.719 48.304C265.206 49.2415 266.362 50.5578 267.185 52.2528C268.019 53.9479 268.435 55.9318 268.435 58.2045C268.435 60.4583 268.019 62.428 267.185 64.1136C266.362 65.7992 265.206 67.1108 263.719 68.0483C262.242 68.9858 260.519 69.4545 258.549 69.4545ZM258.549 66.4432C260.045 66.4432 261.276 66.0597 262.242 65.2926C263.208 64.5256 263.923 63.517 264.387 62.267C264.851 61.017 265.083 59.6629 265.083 58.2045C265.083 56.7462 264.851 55.3873 264.387 54.1278C263.923 52.8684 263.208 51.8504 262.242 51.0739C261.276 50.2973 260.045 49.9091 258.549 49.9091C257.053 49.9091 255.822 50.2973 254.856 51.0739C253.89 51.8504 253.175 52.8684 252.711 54.1278C252.247 55.3873 252.015 56.7462 252.015 58.2045C252.015 59.6629 252.247 61.017 252.711 62.267C253.175 63.517 253.89 64.5256 254.856 65.2926C255.822 66.0597 257.053 66.4432 258.549 66.4432Z" fill="black"/>
</svg>
