<svg width="24" height="24" viewBox="0 0 24 24" fill="none" xmlns="http://www.w3.org/2000/svg">
<path d="M11.4123 1.37476C11.4644 1.26281 11.5474 1.16806 11.6515 1.10166C11.7556 1.03527 11.8765 1 12 1C12.1235 1 12.2444 1.03527 12.3485 1.10166C12.4526 1.16806 12.5356 1.26281 12.5877 1.37476L15.6818 8.00487C15.7462 8.14286 15.8571 8.25378 15.9951 8.31817L22.6252 11.4123C22.7372 11.4644 22.8319 11.5474 22.8983 11.6515C22.9647 11.7556 23 11.8765 23 12C23 12.1235 22.9647 12.2444 22.8983 12.3485C22.8319 12.4526 22.7372 12.5356 22.6252 12.5877L15.9951 15.6818C15.8571 15.7462 15.7462 15.8571 15.6818 15.9951L12.5877 22.6252C12.5356 22.7372 12.4526 22.8319 12.3485 22.8983C12.2444 22.9647 12.1235 23 12 23C11.8765 23 11.7556 22.9647 11.6515 22.8983C11.5474 22.8319 11.4644 22.7372 11.4123 22.6252L8.31817 15.9951C8.25378 15.8571 8.14286 15.7462 8.00487 15.6818L1.37476 12.5877C1.26281 12.5356 1.16806 12.4526 1.10166 12.3485C1.03527 12.2444 1 12.1235 1 12C1 11.8765 1.03527 11.7556 1.10166 11.6515C1.16806 11.5474 1.26281 11.4644 1.37476 11.4123L8.00487 8.31817C8.14286 8.25378 8.25378 8.14286 8.31817 8.00487L11.4123 1.37476Z" stroke="black" stroke-width="1.5" stroke-linecap="round" stroke-linejoin="round"/>
</svg>
