<svg width="619" height="164" viewBox="0 0 619 164" fill="none" xmlns="http://www.w3.org/2000/svg">
<path d="M191.781 44.9375H206.453V113H191.781V44.9375ZM244.797 44.9375C256.516 44.9375 265.328 47.7656 271.234 53.4219C277.172 59.0781 280.141 67.4844 280.141 78.6406C280.141 89.8906 277.141 98.4375 271.141 104.281C265.172 110.094 256.391 113 244.797 113H221.969V44.9375H244.797ZM245.781 102.078C252.125 102.078 256.922 100.125 260.172 96.2188C263.422 92.3125 265.047 86.5156 265.047 78.8281C265.047 71.2656 263.438 65.5625 260.219 61.7188C257 57.875 252.188 55.9531 245.781 55.9531H236.453V102.078H245.781ZM306.109 72.5938H332.922V83.2344H306.109V102.172H336.766V113H291.438V44.9375H335.781V55.7656H306.109V72.5938ZM359.432 91.1818C359.261 89.7424 358.57 88.625 357.358 87.8295C356.146 87.0341 354.659 86.6364 352.898 86.6364C351.61 86.6364 350.483 86.8447 349.517 87.2614C348.561 87.678 347.813 88.2509 347.273 88.9801C346.742 89.7093 346.477 90.5379 346.477 91.4659C346.477 92.2424 346.662 92.91 347.031 93.4688C347.41 94.018 347.893 94.4773 348.48 94.8466C349.067 95.2064 349.683 95.5047 350.327 95.7415C350.971 95.9687 351.562 96.1534 352.102 96.2955L355.057 97.0909C355.814 97.2898 356.657 97.5644 357.585 97.9148C358.523 98.2652 359.418 98.7434 360.27 99.3494C361.132 99.946 361.842 100.713 362.401 101.651C362.959 102.588 363.239 103.739 363.239 105.102C363.239 106.674 362.827 108.095 362.003 109.364C361.188 110.633 359.995 111.641 358.423 112.389C356.861 113.137 354.962 113.511 352.727 113.511C350.644 113.511 348.84 113.175 347.315 112.503C345.8 111.83 344.607 110.893 343.736 109.69C342.874 108.488 342.386 107.091 342.273 105.5H345.909C346.004 106.598 346.373 107.508 347.017 108.227C347.67 108.937 348.494 109.468 349.489 109.818C350.492 110.159 351.572 110.33 352.727 110.33C354.072 110.33 355.279 110.112 356.349 109.676C357.42 109.231 358.267 108.616 358.892 107.83C359.517 107.034 359.83 106.106 359.83 105.045C359.83 104.08 359.56 103.294 359.02 102.688C358.48 102.081 357.77 101.589 356.889 101.21C356.009 100.831 355.057 100.5 354.034 100.216L350.455 99.1932C348.182 98.5398 346.383 97.607 345.057 96.3949C343.731 95.1828 343.068 93.5966 343.068 91.6364C343.068 90.0076 343.509 88.5871 344.389 87.375C345.279 86.1534 346.473 85.2064 347.969 84.5341C349.474 83.8523 351.155 83.5114 353.011 83.5114C354.886 83.5114 356.553 83.8475 358.011 84.5199C359.47 85.1828 360.625 86.0919 361.477 87.2472C362.339 88.4025 362.794 89.714 362.841 91.1818H359.432ZM378.065 91.1818V94.0227H366.758V91.1818H378.065ZM370.053 85.9545H373.406V106.75C373.406 107.697 373.543 108.407 373.817 108.881C374.102 109.345 374.461 109.657 374.897 109.818C375.342 109.97 375.811 110.045 376.303 110.045C376.673 110.045 376.976 110.027 377.212 109.989C377.449 109.941 377.638 109.903 377.781 109.875L378.462 112.886C378.235 112.972 377.918 113.057 377.511 113.142C377.103 113.237 376.587 113.284 375.962 113.284C375.015 113.284 374.087 113.08 373.178 112.673C372.279 112.266 371.531 111.646 370.934 110.812C370.347 109.979 370.053 108.928 370.053 107.659V85.9545ZM396.857 104.08V91.1818H400.21V113H396.857V109.307H396.63C396.119 110.415 395.323 111.357 394.244 112.134C393.164 112.901 391.8 113.284 390.153 113.284C388.789 113.284 387.577 112.986 386.516 112.389C385.456 111.783 384.622 110.874 384.016 109.662C383.41 108.44 383.107 106.902 383.107 105.045V91.1818H386.46V104.818C386.46 106.409 386.905 107.678 387.795 108.625C388.694 109.572 389.84 110.045 391.232 110.045C392.066 110.045 392.913 109.832 393.775 109.406C394.646 108.98 395.375 108.327 395.962 107.446C396.559 106.565 396.857 105.443 396.857 104.08ZM414.588 113.455C412.77 113.455 411.165 112.995 409.773 112.077C408.381 111.149 407.292 109.842 406.506 108.156C405.72 106.461 405.327 104.458 405.327 102.148C405.327 99.8561 405.72 97.8674 406.506 96.1818C407.292 94.4962 408.385 93.1941 409.787 92.2756C411.188 91.357 412.808 90.8977 414.645 90.8977C416.065 90.8977 417.188 91.1345 418.011 91.608C418.845 92.072 419.479 92.6023 419.915 93.1989C420.36 93.786 420.705 94.2689 420.952 94.6477H421.236V83.9091H424.588V113H421.349V109.648H420.952C420.705 110.045 420.355 110.547 419.901 111.153C419.446 111.75 418.797 112.285 417.955 112.759C417.112 113.223 415.99 113.455 414.588 113.455ZM415.043 110.443C416.387 110.443 417.524 110.093 418.452 109.392C419.38 108.682 420.085 107.702 420.568 106.452C421.051 105.192 421.293 103.739 421.293 102.091C421.293 100.462 421.056 99.0369 420.582 97.8153C420.109 96.5843 419.408 95.6278 418.48 94.946C417.552 94.2547 416.406 93.9091 415.043 93.9091C413.622 93.9091 412.438 94.2737 411.491 95.0028C410.554 95.7225 409.848 96.7027 409.375 97.9432C408.911 99.1742 408.679 100.557 408.679 102.091C408.679 103.644 408.916 105.055 409.389 106.324C409.872 107.583 410.582 108.587 411.52 109.335C412.467 110.074 413.641 110.443 415.043 110.443ZM431.193 113V91.1818H434.545V113H431.193ZM432.898 87.5455C432.244 87.5455 431.681 87.3229 431.207 86.8778C430.743 86.4328 430.511 85.8977 430.511 85.2727C430.511 84.6477 430.743 84.1127 431.207 83.6676C431.681 83.2225 432.244 83 432.898 83C433.551 83 434.11 83.2225 434.574 83.6676C435.047 84.1127 435.284 84.6477 435.284 85.2727C435.284 85.8977 435.047 86.4328 434.574 86.8778C434.11 87.3229 433.551 87.5455 432.898 87.5455ZM449.549 113.455C447.579 113.455 445.851 112.986 444.364 112.048C442.887 111.111 441.732 109.799 440.898 108.114C440.075 106.428 439.663 104.458 439.663 102.205C439.663 99.9318 440.075 97.9479 440.898 96.2528C441.732 94.5578 442.887 93.2415 444.364 92.304C445.851 91.3665 447.579 90.8977 449.549 90.8977C451.519 90.8977 453.242 91.3665 454.719 92.304C456.206 93.2415 457.362 94.5578 458.185 96.2528C459.019 97.9479 459.435 99.9318 459.435 102.205C459.435 104.458 459.019 106.428 458.185 108.114C457.362 109.799 456.206 111.111 454.719 112.048C453.242 112.986 451.519 113.455 449.549 113.455ZM449.549 110.443C451.045 110.443 452.276 110.06 453.242 109.293C454.208 108.526 454.923 107.517 455.387 106.267C455.851 105.017 456.083 103.663 456.083 102.205C456.083 100.746 455.851 99.3873 455.387 98.1278C454.923 96.8684 454.208 95.8504 453.242 95.0739C452.276 94.2973 451.045 93.9091 449.549 93.9091C448.053 93.9091 446.822 94.2973 445.856 95.0739C444.89 95.8504 444.175 96.8684 443.711 98.1278C443.247 99.3873 443.015 100.746 443.015 102.205C443.015 103.663 443.247 105.017 443.711 106.267C444.175 107.517 444.89 108.526 445.856 109.293C446.822 110.06 448.053 110.443 449.549 110.443Z" fill="black"/>
<path d="M601.145 131.545C601.221 131.382 601.342 131.244 601.493 131.148C601.645 131.051 601.82 131 602 131C602.18 131 602.355 131.051 602.507 131.148C602.658 131.244 602.779 131.382 602.855 131.545L607.355 141.189C607.449 141.39 607.61 141.551 607.811 141.645L617.455 146.145C617.618 146.221 617.756 146.342 617.852 146.493C617.949 146.645 618 146.82 618 147C618 147.18 617.949 147.355 617.852 147.507C617.756 147.658 617.618 147.779 617.455 147.855L607.811 152.355C607.61 152.449 607.449 152.61 607.355 152.811L602.855 162.455C602.779 162.618 602.658 162.756 602.507 162.852C602.355 162.949 602.18 163 602 163C601.82 163 601.645 162.949 601.493 162.852C601.342 162.756 601.221 162.618 601.145 162.455L596.645 152.811C596.551 152.61 596.39 152.449 596.189 152.355L586.545 147.855C586.382 147.779 586.244 147.658 586.148 147.507C586.051 147.355 586 147.18 586 147C586 146.82 586.051 146.645 586.148 146.493C586.244 146.342 586.382 146.221 586.545 146.145L596.189 141.645C596.39 141.551 596.551 141.39 596.645 141.189L601.145 131.545Z" stroke="black" stroke-width="1.5" stroke-linecap="round" stroke-linejoin="round"/>
<path d="M24.75 108L18.3333 130.917M11.9167 112.583L5.5 119L11.9167 125.417M32.0833 112.583L38.5 119L32.0833 125.417" stroke="black" stroke-width="1.5" stroke-linecap="round" stroke-linejoin="round"/>
<path d="M106.5 71.5L128.167 49.8333M139 39L133.583 44.4167" stroke="#040404" stroke-width="1.5" stroke-linecap="round" stroke-linejoin="round"/>
<path d="M120.583 30.3333L122.631 35.8691L128.167 37.9166L122.631 39.9641L120.583 45.5L118.536 39.9641L113 37.9166L118.536 35.8691L120.583 30.3333ZM141.167 47.6666L142.337 50.83L145.5 52L142.337 53.17L141.167 56.3333L139.997 53.17L136.833 52L139.997 50.83L141.167 47.6666Z" stroke="#040404" stroke-width="1.5" stroke-linejoin="round"/>
<path d="M474.375 66.875H473C471.481 66.875 470.25 65.6457 470.25 64.1264V57.25C470.25 55.875 468.188 54.5 468.188 54.5C468.188 54.5 470.25 53.125 470.25 51.75V44.875C470.25 44.1457 470.54 43.4462 471.055 42.9305C471.571 42.4147 472.271 42.125 473 42.125H474.375M482.625 66.875H484C485.519 66.875 486.75 65.6457 486.75 64.1264V57.25C486.75 55.875 488.812 54.5 488.812 54.5C488.812 54.5 486.75 53.125 486.75 51.75V44.875C486.75 44.1457 486.46 43.4462 485.945 42.9305C485.429 42.4147 484.729 42.125 484 42.125H482.625" stroke="black" stroke-width="1.5" stroke-linecap="round" stroke-linejoin="round"/>
</svg>
